<svg width="100" height="100" viewBox="0 0 100 100" fill="none" xmlns="http://www.w3.org/2000/svg">
<rect width="100" height="100" fill="#111111"/>
<path d="M42.88 56.836H58.252V57.7H43.888V68.968H54.796V69.832H43.888V82H42.88V56.836Z" fill="white"/>
<path d="M49.204 17.836H49.996L60.04 43H59.032L55.936 35.26H43.264L40.168 43H39.16L49.204 17.836ZM55.576 34.396L49.6 19.348L43.624 34.396H55.576Z" fill="white"/>
<path d="M49.204 17.836V16.836H48.5264L48.2752 17.4653L49.204 17.836ZM49.996 17.836L50.9248 17.4653L50.6736 16.836H49.996V17.836ZM60.04 43V44H61.5159L60.9688 42.6293L60.04 43ZM59.032 43L58.1035 43.3714L58.355 44H59.032V43ZM55.936 35.26L56.8645 34.8886L56.613 34.26H55.936V35.26ZM43.264 35.26V34.26H42.587L42.3355 34.8886L43.264 35.26ZM40.168 43V44H40.845L41.0965 43.3714L40.168 43ZM39.16 43L38.2312 42.6293L37.6841 44H39.16V43ZM55.576 34.396V35.396H57.0491L56.5054 34.0269L55.576 34.396ZM49.6 19.348L50.5294 18.9789L49.6 16.6386L48.6706 18.9789L49.6 19.348ZM43.624 34.396L42.6946 34.0269L42.1509 35.396H43.624V34.396ZM49.204 18.836H49.996V16.836H49.204V18.836ZM49.0672 18.2067L59.1113 43.3707L60.9688 42.6293L50.9248 17.4653L49.0672 18.2067ZM60.04 42H59.032V44H60.04V42ZM59.9605 42.6286L56.8645 34.8886L55.0075 35.6314L58.1035 43.3714L59.9605 42.6286ZM55.936 34.26H43.264V36.26H55.936V34.26ZM42.3355 34.8886L39.2395 42.6286L41.0965 43.3714L44.1925 35.6314L42.3355 34.8886ZM40.168 42H39.16V44H40.168V42ZM40.0888 43.3707L50.1328 18.2067L48.2752 17.4653L38.2312 42.6293L40.0888 43.3707ZM56.5054 34.0269L50.5294 18.9789L48.6706 19.7171L54.6466 34.7651L56.5054 34.0269ZM48.6706 18.9789L42.6946 34.0269L44.5534 34.7651L50.5294 19.7171L48.6706 18.9789ZM43.624 35.396H55.576V33.396H43.624V35.396Z" fill="black"/>
</svg>
